<svg xmlns="http://www.w3.org/2000/svg" xmlns:xlink="http://www.w3.org/1999/xlink" viewBox="0 0 17.078 18.678">
  <defs>
    <style>
      .cls-1 {
        fill: url(#linear-gradient);
      }
    </style>
    <linearGradient id="linear-gradient" x1="0.5" x2="0.5" y2="1" gradientUnits="objectBoundingBox">
      <stop offset="0" stop-color="#2765ff"/>
      <stop offset="1" stop-color="#17d7ff"/>
    </linearGradient>
  </defs>
  <g id="Group_189" data-name="Group 189" transform="translate(-1870.964 -169.63)">
    <path id="Subtraction_1" data-name="Subtraction 1" class="cls-1" d="M4.365,18.678h0A1.338,1.338,0,0,1,3.1,17.615L.045,5.147A1.455,1.455,0,0,1,.972,3.39L12.372.049A1.213,1.213,0,0,1,12.712,0a1.339,1.339,0,0,1,1.266,1.064l3.055,12.468a1.456,1.456,0,0,1-.928,1.757l-11.4,3.34A1.212,1.212,0,0,1,4.365,18.678ZM11.706,2.24a1.214,1.214,0,0,0-.34.049L3.132,4.7A1.453,1.453,0,0,0,2.2,6.458l2.206,9.005a1.338,1.338,0,0,0,1.265,1.063,1.212,1.212,0,0,0,.341-.049l8.233-2.413a1.453,1.453,0,0,0,.927-1.756L12.972,3.3A1.338,1.338,0,0,0,11.706,2.24Z" transform="translate(1870.964 169.63)"/>
  </g>
</svg>
